<?xml version="1.0" encoding="utf-8"?>
<!-- Generator: Adobe Illustrator 24.2.1, SVG Export Plug-In . SVG Version: 6.00 Build 0)  -->
<svg version="1.1" id="图层_1" xmlns="http://www.w3.org/2000/svg" xmlns:xlink="http://www.w3.org/1999/xlink" x="0px" y="0px"
	 viewBox="0 0 737.12 273.44" style="enable-background:new 0 0 737.12 273.44;" xml:space="preserve">
<style type="text/css">
	.st0{fill:#F7FAFC;}
	.st1{fill:none;stroke:#000000;stroke-miterlimit:10;}
	.st2{fill:none;stroke:#000000;stroke-width:13;stroke-miterlimit:10;}
	.st3{fill:#B5B5B5;}
	.st4{fill:#1A365D;}
	.st5{fill:#3182CE;}
	.st6{fill:#38A169;}
	.st7{fill:#D69E2E;}
	.st8{fill:#E53E3E;}
	.st9{fill:url(#SVGID_1_);}
	.st10{fill:url(#SVGID_2_);}
	.st11{fill:url(#SVGID_3_);}
	.st12{fill:url(#SVGID_4_);}
	.st13{fill:url(#SVGID_5_);}
	.st14{fill:url(#SVGID_6_);}
	.st15{fill:url(#SVGID_7_);}
	.st16{fill:url(#SVGID_8_);}
	.st17{fill:url(#SVGID_9_);}
	.st18{fill:url(#SVGID_10_);}
	.st19{fill:url(#SVGID_11_);}
	.st20{fill:url(#SVGID_12_);}
	.st21{fill:url(#SVGID_13_);}
	.st22{fill:url(#SVGID_14_);}
	.st23{fill:url(#SVGID_15_);}
	.st24{fill:url(#SVGID_16_);}
	.st25{fill:url(#SVGID_17_);}
	.st26{fill:url(#SVGID_18_);}
	.st27{fill:url(#SVGID_19_);}
	.st28{fill:url(#SVGID_20_);}
	.st29{fill:url(#SVGID_21_);}
	.st30{fill:url(#SVGID_22_);}
	.st31{fill:url(#SVGID_23_);}
	.st32{fill:url(#SVGID_24_);}
	.st33{fill:url(#SVGID_25_);}
	.st34{fill:url(#SVGID_26_);}
	.st35{fill:url(#SVGID_27_);}
	.st36{fill:url(#SVGID_28_);}
	.st37{fill:url(#SVGID_29_);}
	.st38{fill:url(#SVGID_30_);}
	.st39{fill:url(#SVGID_31_);}
	.st40{fill:url(#SVGID_32_);}
	.st41{fill:url(#SVGID_33_);}
	.st42{fill:url(#SVGID_34_);}
	.st43{fill:url(#SVGID_35_);}
	.st44{fill:url(#SVGID_36_);}
	.st45{fill:url(#SVGID_37_);}
	.st46{fill:url(#SVGID_38_);}
	.st47{fill:url(#SVGID_39_);}
	.st48{fill:url(#SVGID_40_);}
	.st49{fill:url(#SVGID_41_);}
	.st50{fill:url(#SVGID_42_);}
	.st51{fill:url(#SVGID_43_);}
	.st52{fill:url(#SVGID_44_);}
	.st53{fill:url(#SVGID_45_);}
	.st54{fill:url(#SVGID_46_);}
	.st55{fill:url(#SVGID_47_);}
	.st56{fill:url(#SVGID_48_);}
	.st57{fill:url(#SVGID_49_);}
	.st58{fill:url(#SVGID_50_);}
	.st59{fill:url(#SVGID_51_);}
	.st60{fill:url(#SVGID_52_);}
	.st61{fill:url(#SVGID_53_);}
	.st62{fill:url(#SVGID_54_);}
	.st63{fill:url(#SVGID_55_);}
	.st64{fill:#5CBDFF;}
	.st65{fill:url(#SVGID_56_);}
	.st66{fill:url(#SVGID_57_);}
	.st67{fill:url(#SVGID_58_);}
	.st68{fill:url(#SVGID_59_);}
	.st69{fill:url(#SVGID_60_);}
	.st70{fill:url(#SVGID_61_);}
	.st71{fill:url(#SVGID_62_);}
	.st72{fill:url(#SVGID_63_);}
	.st73{fill:url(#SVGID_64_);}
	.st74{fill:url(#SVGID_65_);}
	.st75{fill:url(#SVGID_66_);}
	.st76{fill:url(#SVGID_67_);}
	.st77{fill:url(#SVGID_68_);}
	.st78{fill:url(#SVGID_69_);}
	.st79{fill:url(#SVGID_70_);}
	.st80{fill:url(#SVGID_71_);}
	.st81{fill:url(#SVGID_72_);}
	.st82{fill:url(#SVGID_73_);}
	.st83{fill:url(#SVGID_74_);}
	.st84{fill:url(#SVGID_75_);}
	.st85{fill:url(#SVGID_76_);}
	.st86{fill:url(#SVGID_77_);}
	.st87{fill:url(#SVGID_78_);}
	.st88{fill:url(#SVGID_79_);}
	.st89{fill:url(#SVGID_80_);}
	.st90{fill:url(#SVGID_81_);}
	.st91{fill:url(#SVGID_82_);}
	.st92{fill:url(#SVGID_83_);}
	.st93{fill:url(#SVGID_84_);}
	.st94{fill:url(#SVGID_85_);}
	.st95{fill:url(#SVGID_86_);}
	.st96{fill:url(#SVGID_87_);}
	.st97{fill:url(#SVGID_88_);}
	.st98{fill:url(#SVGID_89_);}
	.st99{fill:url(#SVGID_90_);}
	.st100{fill:url(#SVGID_91_);}
	.st101{fill:url(#SVGID_92_);}
	.st102{fill:url(#SVGID_93_);}
	.st103{fill:url(#SVGID_94_);}
	.st104{fill:url(#SVGID_95_);}
	.st105{fill:url(#SVGID_96_);}
	.st106{fill:url(#SVGID_97_);}
	.st107{fill:url(#SVGID_98_);}
	.st108{fill:url(#SVGID_99_);}
</style>
<g>
	<g>
		<g>
			<linearGradient id="SVGID_1_" gradientUnits="userSpaceOnUse" x1="200.8799" y1="217.1487" x2="60.5485" y2="74.983">
				<stop  offset="0" style="stop-color:#3182CE"/>
				<stop  offset="1" style="stop-color:#5CBDFF"/>
			</linearGradient>
			<path class="st9" d="M43.15,126.62c6.96-34.6,34.28-61.92,68.89-68.89l3-13.7c-44.2,6.33-79.25,41.38-85.58,85.58L43.15,126.62z"
				/>
			<linearGradient id="SVGID_2_" gradientUnits="userSpaceOnUse" x1="263.1458" y1="155.686" x2="122.815" y2="13.521">
				<stop  offset="0" style="stop-color:#3182CE"/>
				<stop  offset="1" style="stop-color:#5CBDFF"/>
			</linearGradient>
			<path class="st10" d="M146.81,57.74c34.6,6.96,61.92,34.28,68.88,68.89l13.7,3c-6.33-44.2-41.38-79.25-85.58-85.58L146.81,57.74z
				"/>
			<linearGradient id="SVGID_3_" gradientUnits="userSpaceOnUse" x1="201.627" y1="216.4111" x2="61.2956" y2="74.2455">
				<stop  offset="0" style="stop-color:#3182CE"/>
				<stop  offset="1" style="stop-color:#5CBDFF"/>
			</linearGradient>
			<path class="st11" d="M215.7,161.4c-6.96,34.6-34.28,61.92-68.88,68.88l-3,13.7c44.2-6.33,79.25-41.38,85.58-85.58L215.7,161.4z"
				/>
			<linearGradient id="SVGID_4_" gradientUnits="userSpaceOnUse" x1="139.361" y1="277.8736" x2="-0.9705" y2="135.708">
				<stop  offset="0" style="stop-color:#3182CE"/>
				<stop  offset="1" style="stop-color:#5CBDFF"/>
			</linearGradient>
			<path class="st12" d="M112.04,230.29c-34.6-6.96-61.92-34.28-68.89-68.88l-13.7-3c6.33,44.2,41.38,79.25,85.58,85.58
				L112.04,230.29z"/>
		</g>
		<g>
			<linearGradient id="SVGID_5_" gradientUnits="userSpaceOnUse" x1="201.0541" y1="216.9764" x2="60.7228" y2="74.8109">
				<stop  offset="0" style="stop-color:#3182CE"/>
				<stop  offset="1" style="stop-color:#5CBDFF"/>
			</linearGradient>
			<path class="st13" d="M107.94,104.53L74.55,83.14c-2.1,1.9-4.1,3.9-6,6c6.48,10.12,14.75,23.02,21.39,33.39l14.76-3.23
				L107.94,104.53z"/>
			<linearGradient id="SVGID_6_" gradientUnits="userSpaceOnUse" x1="159.6489" y1="257.8476" x2="19.3176" y2="115.6821">
				<stop  offset="0" style="stop-color:#3182CE"/>
				<stop  offset="1" style="stop-color:#5CBDFF"/>
			</linearGradient>
			<path class="st14" d="M89.94,165.5l-21.39,33.39c1.9,2.1,3.9,4.1,6,6l33.39-21.39l-3.23-14.76L89.94,165.5z"/>
			<linearGradient id="SVGID_7_" gradientUnits="userSpaceOnUse" x1="242.8579" y1="175.7121" x2="102.5267" y2="33.5467">
				<stop  offset="0" style="stop-color:#3182CE"/>
				<stop  offset="1" style="stop-color:#5CBDFF"/>
			</linearGradient>
			<path class="st15" d="M168.91,122.52l21.39-33.39c-1.9-2.1-3.9-4.1-6-6l-33.39,21.39l3.23,14.76L168.91,122.52z"/>
			<linearGradient id="SVGID_8_" gradientUnits="userSpaceOnUse" x1="201.4526" y1="216.5832" x2="61.1213" y2="74.4176">
				<stop  offset="0" style="stop-color:#3182CE"/>
				<stop  offset="1" style="stop-color:#5CBDFF"/>
			</linearGradient>
			<path class="st16" d="M154.15,168.74l-3.23,14.76c10.37,6.64,23.27,14.91,33.39,21.39c2.1-1.9,4.1-3.9,6-6l-21.39-33.39
				L154.15,168.74z"/>
		</g>
		<linearGradient id="SVGID_9_" gradientUnits="userSpaceOnUse" x1="201.2535" y1="216.78" x2="60.9222" y2="74.6145">
			<stop  offset="0" style="stop-color:#3182CE"/>
			<stop  offset="1" style="stop-color:#5CBDFF"/>
		</linearGradient>
		<circle class="st17" cx="129.43" cy="144.01" r="15.59"/>
		<linearGradient id="SVGID_10_" gradientUnits="userSpaceOnUse" x1="201.2533" y1="216.7798" x2="60.9218" y2="74.6141">
			<stop  offset="0" style="stop-color:#3182CE"/>
			<stop  offset="1" style="stop-color:#5CBDFF"/>
		</linearGradient>
		<path class="st18" d="M154.15,119.29L131.61,16.35c-0.51-2.35-3.86-2.35-4.37,0L104.7,119.29L1.76,141.83
			c-2.35,0.51-2.35,3.86,0,4.37l102.94,22.54l22.54,102.94c0.51,2.35,3.86,2.35,4.37,0l22.54-102.94l102.94-22.54
			c2.35-0.51,2.35-3.86,0-4.37L154.15,119.29z M136.07,171.81l-6.65,59.79l-6.65-59.79c-10.43-2.49-18.65-10.72-21.15-21.15
			l-59.8-6.65l59.8-6.65c2.5-10.43,10.72-18.65,21.15-21.15l6.65-59.79l6.65,59.79c10.43,2.49,18.65,10.72,21.15,21.15l59.79,6.65
			l-59.79,6.65C154.73,161.09,146.5,169.32,136.07,171.81z"/>
		<linearGradient id="SVGID_11_" gradientUnits="userSpaceOnUse" x1="262.2196" y1="156.6001" x2="121.8885" y2="14.4348">
			<stop  offset="0" style="stop-color:#3182CE"/>
			<stop  offset="1" style="stop-color:#5CBDFF"/>
		</linearGradient>
		<path class="st19" d="M128.44,0.63l-13.45,28.44c-0.39,0.83,0.46,1.69,1.29,1.31l13.15-6.01l13.15,6.01
			c0.83,0.38,1.68-0.48,1.29-1.31L130.41,0.63C130.02-0.21,128.83-0.21,128.44,0.63z"/>
	</g>
	<g>
		<g>
			<path class="st4" d="M291.64,74.13h20.16c6.83,0,12.14,1.61,15.93,4.82c3.79,3.22,5.68,7.9,5.68,14.05
				c0,6.21-1.89,10.96-5.68,14.26c-3.79,3.3-9.1,4.96-15.93,4.96h-8.2v21.69h-11.96V74.13z M311.11,101.47
				c6.78,0,10.16-2.79,10.16-8.37c0-2.79-0.87-4.87-2.6-6.24c-1.74-1.37-4.26-2.05-7.56-2.05h-7.52v16.66H311.11z"/>
			<path class="st4" d="M345.53,131.92c-3.59-2.08-6.41-4.9-8.46-8.46c-2.05-3.56-3.07-7.44-3.07-11.66c0-4.21,1.03-8.11,3.07-11.7
				c2.05-3.59,4.87-6.42,8.46-8.5c3.59-2.08,7.63-3.12,12.13-3.12c4.5,0,8.54,1.04,12.13,3.12c3.59,2.08,6.41,4.91,8.46,8.5
				c2.05,3.59,3.07,7.49,3.07,11.7c0,4.22-1.03,8.1-3.07,11.66c-2.05,3.56-4.87,6.38-8.46,8.46c-3.59,2.08-7.63,3.12-12.13,3.12
				C353.16,135.03,349.12,133.99,345.53,131.92z M347.02,118.21c1,1.94,2.42,3.48,4.27,4.61c1.85,1.14,3.97,1.71,6.36,1.71
				c2.39,0,4.51-0.57,6.36-1.71s3.27-2.68,4.27-4.61c0.99-1.93,1.49-4.07,1.49-6.41c0-2.33-0.51-4.47-1.54-6.41
				c-1.03-1.94-2.45-3.49-4.27-4.66c-1.82-1.17-3.93-1.75-6.32-1.75c-2.39,0-4.5,0.58-6.32,1.75c-1.82,1.17-3.25,2.72-4.27,4.66
				c-1.03,1.94-1.54,4.07-1.54,6.41C345.53,114.14,346.03,116.27,347.02,118.21z"/>
			<path class="st4" d="M386.44,71.57h11.53v62.35h-11.53V71.57z"/>
			<path class="st4" d="M405.62,74.22c1.34-1.31,2.97-1.96,4.91-1.96c1.99,0,3.64,0.65,4.95,1.96c1.31,1.31,1.96,2.9,1.96,4.78
				c0,1.94-0.66,3.56-1.96,4.87c-1.31,1.31-2.96,1.96-4.95,1.96c-1.94,0-3.57-0.67-4.91-2.01c-1.34-1.34-2.01-2.95-2.01-4.82
				C403.61,77.12,404.28,75.53,405.62,74.22z M404.81,89.51h11.53v44.42h-11.53V89.51z"/>
			<path class="st4" d="M432.86,131.92c-3.5-2.08-6.28-4.91-8.33-8.5c-2.05-3.59-3.07-7.49-3.07-11.7c0-4.27,1.03-8.18,3.07-11.74
				c2.05-3.56,4.9-6.38,8.54-8.46c3.64-2.08,7.71-3.12,12.21-3.12c3.93,0,7.46,0.73,10.59,2.18c3.13,1.45,5.64,3.49,7.52,6.11
				l-8.88,7.26c-1.02-1.54-2.36-2.76-4.01-3.67c-1.65-0.91-3.45-1.37-5.38-1.37c-2.39,0-4.5,0.58-6.32,1.75
				c-1.82,1.17-3.25,2.72-4.27,4.66c-1.03,1.94-1.54,4.07-1.54,6.41c0,2.28,0.53,4.4,1.58,6.36c1.05,1.96,2.52,3.53,4.4,4.7
				c1.88,1.17,4.02,1.75,6.41,1.75c2.1,0,3.93-0.46,5.47-1.37c1.54-0.91,2.93-2.22,4.19-3.93l8.37,7.26
				c-4.44,5.69-10.79,8.54-19.05,8.54C440.19,135.03,436.37,133.99,432.86,131.92z"/>
			<path class="st4" d="M464.25,150.92l1.71-11.02c1.59,0.4,3.33,0.6,5.21,0.6c2.11,0,3.89-0.61,5.34-1.84
				c1.45-1.22,2.52-2.86,3.2-4.91l0.6-1.88l-17.6-42.37h13.92l8.63,25.37c0.8,2.16,1.42,4.53,1.88,7.09
				c0.45-2.56,1.08-4.93,1.88-7.09l8.63-25.37h13.67l-19.64,47.23c-2.05,4.84-4.63,8.56-7.73,11.15c-3.1,2.59-7.1,3.89-12,3.89
				C468.75,151.77,466.19,151.49,464.25,150.92z"/>
		</g>
		<g>
			<path class="st4" d="M306.97,210.86c-4.76-2.76-8.5-6.51-11.23-11.23c-2.73-4.72-4.1-9.91-4.1-15.55
				c0-5.69,1.32-10.92,3.97-15.67c2.65-4.76,6.33-8.51,11.06-11.27c4.72-2.76,10.11-4.14,16.14-4.14c4.84,0,9.01,0.76,12.51,2.26
				c3.5,1.51,6.62,3.88,9.35,7.13l-8.46,7.34c-3.59-3.76-8.06-5.63-13.41-5.63c-3.76,0-7.06,0.9-9.91,2.69
				c-2.85,1.79-5.04,4.22-6.58,7.26c-1.54,3.05-2.31,6.39-2.31,10.03c0,3.65,0.78,6.98,2.35,10c1.57,3.02,3.79,5.41,6.66,7.17
				c2.88,1.77,6.22,2.65,10.04,2.65c5.58,0,10.13-1.94,13.67-5.81l8.71,7.43c-2.39,2.9-5.51,5.21-9.35,6.92
				c-3.84,1.71-8.27,2.56-13.28,2.56C317,215,311.72,213.62,306.97,210.86z"/>
			<path class="st4" d="M356.81,211.89c-3.59-2.08-6.41-4.9-8.46-8.46c-2.05-3.56-3.07-7.44-3.07-11.66c0-4.21,1.03-8.11,3.07-11.7
				c2.05-3.59,4.87-6.42,8.46-8.5c3.59-2.08,7.63-3.12,12.13-3.12c4.5,0,8.54,1.04,12.13,3.12c3.59,2.08,6.41,4.91,8.46,8.5
				c2.05,3.59,3.07,7.49,3.07,11.7c0,4.22-1.03,8.1-3.07,11.66c-2.05,3.56-4.87,6.38-8.46,8.46c-3.59,2.08-7.63,3.12-12.13,3.12
				C364.44,215,360.39,213.97,356.81,211.89z M358.3,198.18c1,1.94,2.42,3.48,4.27,4.61c1.85,1.14,3.97,1.71,6.36,1.71
				s4.51-0.57,6.36-1.71c1.85-1.14,3.27-2.68,4.27-4.61c0.99-1.93,1.49-4.07,1.49-6.41c0-2.33-0.51-4.47-1.54-6.41
				c-1.03-1.94-2.45-3.49-4.27-4.66c-1.82-1.17-3.93-1.75-6.32-1.75s-4.5,0.58-6.32,1.75c-1.82,1.17-3.25,2.72-4.27,4.66
				c-1.03,1.94-1.54,4.07-1.54,6.41C356.81,194.11,357.3,196.24,358.3,198.18z"/>
			<path class="st4" d="M397.72,169.48h11.36v6.49c2.33-5.01,6.86-7.52,13.58-7.52c3.13,0,5.96,0.73,8.5,2.18
				c2.53,1.45,4.51,3.52,5.94,6.19c1.54-2.79,3.49-4.88,5.85-6.28c2.36-1.39,5.42-2.09,9.18-2.09c3.19,0,6.06,0.76,8.63,2.26
				c2.56,1.51,4.58,3.64,6.06,6.41c1.48,2.76,2.22,5.97,2.22,9.61v27.16h-11.53v-24.34c0-3.7-0.8-6.46-2.39-8.29
				c-1.59-1.82-3.76-2.73-6.49-2.73c-2.9,0-5.14,0.83-6.7,2.48c-1.57,1.65-2.35,4.5-2.35,8.54v24.34h-11.53v-24.34
				c0-3.7-0.85-6.46-2.56-8.29c-1.71-1.82-4.04-2.73-7-2.73c-2.62,0-4.81,0.93-6.58,2.78c-1.77,1.85-2.65,4.6-2.65,8.24v24.34
				h-11.53V169.48z"/>
			<path class="st4" d="M475.44,169.48h11.36v7.18c1.31-2.62,3.07-4.63,5.3-6.02c2.22-1.39,5.18-2.09,8.88-2.09
				c3.98,0,7.66,1.05,11.02,3.16c3.36,2.11,6.02,4.94,7.99,8.5c1.96,3.56,2.95,7.45,2.95,11.66s-0.98,8.09-2.95,11.61
				c-1.96,3.53-4.63,6.34-7.99,8.41c-3.36,2.08-7.03,3.12-11.02,3.12c-3.59,0-6.51-0.67-8.76-2.01c-2.25-1.34-4-3.23-5.25-5.68
				v23.66h-11.53V169.48z M488.17,198.26c1.03,1.94,2.49,3.47,4.4,4.61c1.91,1.14,4.08,1.71,6.53,1.71c2.39,0,4.51-0.58,6.36-1.75
				c1.85-1.17,3.3-2.73,4.36-4.7c1.05-1.96,1.58-4.08,1.58-6.36c0-2.33-0.51-4.47-1.54-6.41c-1.03-1.94-2.48-3.49-4.36-4.66
				c-1.88-1.17-4.02-1.75-6.41-1.75c-2.45,0-4.63,0.58-6.53,1.75c-1.91,1.17-3.37,2.73-4.4,4.7c-1.03,1.96-1.54,4.12-1.54,6.45
				S487.14,196.33,488.17,198.26z"/>
			<path class="st4" d="M536.85,211.89c-3.36-2.08-6.02-4.88-7.99-8.41c-1.96-3.53-2.95-7.4-2.95-11.61s0.98-8.1,2.95-11.66
				c1.96-3.56,4.63-6.39,7.99-8.5c3.36-2.11,7.03-3.16,11.02-3.16c3.64,0,6.59,0.68,8.84,2.05c2.25,1.37,4,3.33,5.25,5.89v-7h11.45
				v44.42h-11.19v-7.26c-1.31,2.68-3.09,4.74-5.34,6.19c-2.25,1.45-5.25,2.18-9.01,2.18C543.89,215,540.21,213.97,536.85,211.89z
				 M539.03,198.14c1.05,1.96,2.51,3.53,4.36,4.7c1.85,1.17,3.97,1.75,6.36,1.75c2.45,0,4.63-0.57,6.53-1.71
				c1.91-1.14,3.37-2.67,4.4-4.61c1.03-1.94,1.54-4.07,1.54-6.41s-0.51-4.49-1.54-6.45c-1.02-1.96-2.49-3.53-4.4-4.7
				c-1.91-1.17-4.09-1.75-6.53-1.75c-2.39,0-4.53,0.58-6.41,1.75c-1.88,1.17-3.33,2.72-4.36,4.66c-1.03,1.94-1.54,4.07-1.54,6.41
				C537.45,194.05,537.98,196.17,539.03,198.14z"/>
			<path class="st4" d="M577,207.23l7.77-7.09c3.25,3.65,6.72,5.47,10.42,5.47c1.94,0,3.44-0.43,4.53-1.28
				c1.08-0.85,1.62-1.96,1.62-3.33c0-1.25-0.53-2.23-1.58-2.95c-1.05-0.71-3.23-1.46-6.53-2.26c-5.41-1.31-9.04-3.1-10.89-5.38
				c-1.85-2.28-2.78-5.09-2.78-8.46c0-3.98,1.48-7.25,4.44-9.78c2.96-2.53,7-3.8,12.13-3.8c3.7,0,6.82,0.57,9.35,1.71
				c2.53,1.14,4.91,3.13,7.13,5.98l-8.37,6.41c-1.99-3.19-4.61-4.78-7.86-4.78c-1.65,0-2.99,0.33-4.02,0.98
				c-1.02,0.66-1.54,1.64-1.54,2.95c0,0.91,0.38,1.69,1.15,2.35c0.77,0.66,2.38,1.3,4.83,1.92c6.09,1.59,10.26,3.56,12.51,5.89
				c2.25,2.33,3.37,5.3,3.37,8.88c0,2.68-0.76,5.11-2.26,7.3c-1.51,2.19-3.57,3.91-6.19,5.17c-2.62,1.25-5.55,1.88-8.8,1.88
				C587.99,215,581.84,212.41,577,207.23z"/>
			<path class="st4" d="M613.98,207.23l7.77-7.09c3.25,3.65,6.72,5.47,10.42,5.47c1.94,0,3.44-0.43,4.53-1.28
				c1.08-0.85,1.62-1.96,1.62-3.33c0-1.25-0.53-2.23-1.58-2.95c-1.05-0.71-3.23-1.46-6.53-2.26c-5.41-1.31-9.04-3.1-10.89-5.38
				c-1.85-2.28-2.78-5.09-2.78-8.46c0-3.98,1.48-7.25,4.44-9.78c2.96-2.53,7-3.8,12.13-3.8c3.7,0,6.82,0.57,9.35,1.71
				c2.53,1.14,4.91,3.13,7.13,5.98l-8.37,6.41c-1.99-3.19-4.61-4.78-7.86-4.78c-1.65,0-2.99,0.33-4.02,0.98
				c-1.02,0.66-1.54,1.64-1.54,2.95c0,0.91,0.38,1.69,1.15,2.35c0.77,0.66,2.38,1.3,4.83,1.92c6.09,1.59,10.26,3.56,12.51,5.89
				c2.25,2.33,3.37,5.3,3.37,8.88c0,2.68-0.76,5.11-2.26,7.3c-1.51,2.19-3.57,3.91-6.19,5.17c-2.62,1.25-5.55,1.88-8.8,1.88
				C624.97,215,618.82,212.41,613.98,207.23z"/>
			<path class="st4" d="M687.61,154.11h10.33l24.34,59.79H709.3l-4.1-11.36h-24.94l-4.1,11.36h-12.98L687.61,154.11z M701.27,192.2
				l-6.41-16.31c-0.97-2.51-1.68-4.78-2.14-6.83c-0.74,2.85-1.45,5.13-2.14,6.83l-6.41,16.31H701.27z"/>
			<path class="st4" d="M724.93,154.11h11.96v59.79h-11.96V154.11z"/>
		</g>
	</g>
</g>
</svg>
